<svg width="142" height="12" viewBox="0 0 142 12" fill="none" xmlns="http://www.w3.org/2000/svg">
<path d="M141.53 6.53033C141.823 6.23744 141.823 5.76256 141.53 5.46967L136.757 0.696699C136.464 0.403806 135.99 0.403806 135.697 0.696699C135.404 0.989592 135.404 1.46447 135.697 1.75736L139.939 6L135.697 10.2426C135.404 10.5355 135.404 11.0104 135.697 11.3033C135.99 11.5962 136.464 11.5962 136.757 11.3033L141.53 6.53033ZM116 6.75H141V5.25H116V6.75Z" fill="white"/>
<path d="M0.46967 6.53033C0.176777 6.23744 0.176777 5.76256 0.46967 5.46967L5.24264 0.696699C5.53553 0.403806 6.01041 0.403806 6.3033 0.696699C6.59619 0.989592 6.59619 1.46447 6.3033 1.75736L2.06066 6L6.3033 10.2426C6.59619 10.5355 6.59619 11.0104 6.3033 11.3033C6.01041 11.5962 5.53553 11.5962 5.24264 11.3033L0.46967 6.53033ZM26 6.75H1V5.25H26V6.75Z" fill="white"/>
</svg>
