<svg width="58" height="32" viewBox="0 0 58 32" fill="none" xmlns="http://www.w3.org/2000/svg">
<path d="M10.9393 0.93934C11.5251 0.353553 12.4749 0.353553 13.0607 0.93934L22.6066 10.4853C23.1924 11.0711 23.1924 12.0208 22.6066 12.6066C22.0208 13.1924 21.0711 13.1924 20.4853 12.6066L12 4.12132L3.51472 12.6066C2.92893 13.1924 1.97918 13.1924 1.3934 12.6066C0.807612 12.0208 0.807612 11.0711 1.3934 10.4853L10.9393 0.93934ZM10.5 3V2H13.5V3H10.5Z" fill="white"/>
<path d="M44.9393 31.5607C45.5251 32.1464 46.4749 32.1464 47.0607 31.5607L56.6066 22.0147C57.1924 21.4289 57.1924 20.4792 56.6066 19.8934C56.0208 19.3076 55.0711 19.3076 54.4853 19.8934L46 28.3787L37.5147 19.8934C36.9289 19.3076 35.9792 19.3076 35.3934 19.8934C34.8076 20.4792 34.8076 21.4289 35.3934 22.0147L44.9393 31.5607ZM44.5 29.5V30.5H47.5V29.5H44.5Z" fill="white"/>
</svg>
